HIERARCHY
ROOT reference
{
  OFFSET 0 0 0
  CHANNELS 6 Xposition Yposition Zposition Zrotation Xrotation Yrotation
  JOINT Hips
  {
    OFFSET 0 97.8064 0
    CHANNELS 6 Xposition Yposition Zposition Zrotation Xrotation Yrotation
    JOINT ToSpine
    {
      OFFSET -2.69724 7.43032 -0.144315
      CHANNELS 6 Xposition Yposition Zposition Zrotation Xrotation Yrotation
      JOINT Spine
      {
        OFFSET -0.0310711 10.7595 1.96963
        CHANNELS 6 Xposition Yposition Zposition Zrotation Xrotation Yrotation
        JOINT Spine1
        {
          OFFSET 13.1342 3.43533 0.764692
          CHANNELS 6 Xposition Yposition Zposition Zrotation Xrotation Yrotation
          JOINT Neck
          {
            OFFSET 29.8703 7.82586 -0.130764
            CHANNELS 6 Xposition Yposition Zposition Zrotation Xrotation Yrotation
            JOINT Head
            {
              OFFSET 9.52751 0.295786 -0.907742
              CHANNELS 6 Xposition Yposition Zposition Zrotation Xrotation Yrotation
              End Site
              {
                OFFSET 16.4037 0.713936 2.7358
              }
            }
          }
          JOINT LeftShoulder
          {
            OFFSET 27.5574 4.95586 2.47156
            CHANNELS 6 Xposition Yposition Zposition Zrotation Xrotation Yrotation
            JOINT LeftArm
            {
              OFFSET 1.20734 -0.998971 20.1238
              CHANNELS 6 Xposition Yposition Zposition Zrotation Xrotation Yrotation
              JOINT LeftForeArm
              {
                OFFSET 26.8049 -0.0536703 -0.155908
                CHANNELS 6 Xposition Yposition Zposition Zrotation Xrotation Yrotation
                JOINT LeftHand
                {
                  OFFSET 26.6817 0 0.320147
                  CHANNELS 6 Xposition Yposition Zposition Zrotation Xrotation Yrotation
                  End Site
                  {
                    OFFSET 18.6119 0 0.382219
                  }
                }
              }
            }
          }
          JOINT RightShoulder
          {
            OFFSET 27.5927 4.71444 -2.65209
            CHANNELS 6 Xposition Yposition Zposition Zrotation Xrotation Yrotation
            JOINT RightArm
            {
              OFFSET 2.83739 -1.17114 -18.7564
              CHANNELS 6 Xposition Yposition Zposition Zrotation Xrotation Yrotation
              JOINT RightForeArm
              {
                OFFSET 28.839 -0.0548439 1.22491
                CHANNELS 6 Xposition Yposition Zposition Zrotation Xrotation Yrotation
                JOINT RightHand
                {
                  OFFSET 26.5114 0 -0.101894
                  CHANNELS 6 Xposition Yposition Zposition Zrotation Xrotation Yrotation
                  End Site
                  {
                    OFFSET 18.2168 0 0
                  }
                }
              }
            }
          }
        }
      }
    }
    JOINT LeftUpLeg
    {
      OFFSET -4.76168 -1.9167 -10.2353
      CHANNELS 6 Xposition Yposition Zposition Zrotation Xrotation Yrotation
      JOINT LeftLeg
      {
        OFFSET 2.55951 -42.0585 -8.02213
        CHANNELS 6 Xposition Yposition Zposition Zrotation Xrotation Yrotation
        JOINT LeftFoot
        {
          OFFSET 3.16357 -42.5282 -3.95426
          CHANNELS 6 Xposition Yposition Zposition Zrotation Xrotation Yrotation
          JOINT LeftToeBase
          {
            OFFSET 0.346054 -6.02161 12.8035
            CHANNELS 6 Xposition Yposition Zposition Zrotation Xrotation Yrotation
            End Site
            {
              OFFSET 0.134235 -1.35082 5.13018
            }
          }
        }
      }
    }
    JOINT RightUpLeg
    {
      OFFSET -4.94151 -1.41743 10.6446
      CHANNELS 6 Xposition Yposition Zposition Zrotation Xrotation Yrotation
      JOINT RightLeg
      {
        OFFSET -2.56294 -42.0364 -7.94377
        CHANNELS 6 Xposition Yposition Zposition Zrotation Xrotation Yrotation
        JOINT RightFoot
        {
          OFFSET -3.0952 -42.555 -4.02241
          CHANNELS 6 Xposition Yposition Zposition Zrotation Xrotation Yrotation
          JOINT RightToeBase
          {
            OFFSET -0.0828122 -6.13587 12.8035
            CHANNELS 6 Xposition Yposition Zposition Zrotation Xrotation Yrotation
            End Site
            {
              OFFSET -0.131328 -1.35082 5.13018
            }
          }
        }
      }
    }
  }
}
MOTION
Frames:	8
Frame Time:	0.0333333
0 0 0 0 0 -0 0 97.8064 0 -9.21641 -69.4912 -99.4257 -2.69724 7.43032 -0.144315 -70.1915 -6.18407e-015 88.8779 -0.0310711 10.7595 1.96963 64.9783 69.5887 25.2871 13.1342 3.43533 0.764692 4.60351 20.8703 1.40837 29.8703 7.82586 -0.130764 -158.867 19.9774 178.863 9.52751 0.295786 -0.907742 -163.551 59.618 -171.956 27.5574 4.95586 2.47156 3.81932 1.88815 -1.18989 1.20734 -0.998971 20.1238 -90 -2.89528e-014 -90 26.8049 -0.0536703 -0.155908 -2.27865e-008 -1.09882e-007 -6.77748e-008 26.6817 -2.84217e-014 0.320147 -4.83776e-016 2.19066e-016 -1.61484e-015 27.5927 4.71444 -2.65209 2.06088 1.77022 3.86625 2.83739 -1.17114 -18.7564 -88.2385 5 88.8941 28.839 -0.0548439 1.22491 1.27948e-006 4.79839e-007 0.0043221 26.5114 0 -0.101894 -1.10621e-012 -4.76474e-009 -0.0296889 -4.76168 -1.9167 -10.2353 -54.5197 2.7833 99.4142 2.55951 -42.0585 -8.02213 -1.21668 19.2657 -6.32176 3.16357 -42.5282 -3.95426 3.72058 -5.93042 -0.842831 0.346054 -6.02161 12.8035 0.207147 -0.61891 0.346907 -4.94151 -1.41743 10.6446 -55.5919 -0.189965 81.4537 -2.56294 -42.0364 -7.94377 1.38344 13.6714 6.74024 -3.0952 -42.555 -4.02241 -6.15803 -1.03764 0.970027 -0.0828122 -6.13587 12.8035 1.52296 -4.82373 -7.85573 
0 0 0 0 0 -0 -15.0835 94.6293 11.4186 68.6784 -30.8687 -10.01 -2.69724 7.43032 -0.144315 -70.1915 3.77691e-015 88.8779 -0.0310711 10.7595 1.96963 67.7064 71.4316 16.27 13.1342 3.43533 0.764692 7.30804 20.4069 6.57241 29.8703 7.82586 -0.130764 -130.852 35.8177 160.963 9.52751 0.295786 -0.907742 168.982 76.9341 -138.988 27.5574 4.95586 2.47156 0.361126 -14.7454 -25.0366 1.20734 -0.998971 20.1238 -44.6668 26.1337 -143.064 26.8049 -0.0536703 -0.155908 14.9456 -1.52719 -94.9477 26.6817 -2.84217e-014 0.320147 2.38542e-015 2.68359e-015 -1.59028e-015 27.5927 4.71444 -2.65209 -2.24524 6.65509 47.9835 2.83739 -1.17114 -18.7564 -109.177 -21.7588 75.8941 28.839 -0.0548439 1.22491 13.5206 -6.78183 63.8434 26.5114 2.84217e-014 -0.101894 -1.10766e-012 -4.76474e-009 -0.0296889 -4.76168 -1.9167 -10.2353 -45.3552 9.44479 89.5322 2.55951 -42.0585 -8.02213 -2.59309 37.0611 -8.85374 3.16357 -42.5282 -3.95426 0.411942 -10.1045 -0.906254 0.346054 -6.02161 12.8035 2.17143 -6.8376 7.70133 -4.94151 -1.41743 10.6446 -48.5118 -13.5535 76.5622 -2.56294 -42.0364 -7.94377 2.95446 26.833 -8.08523 -3.0952 -42.555 -4.02241 -2.33989 -2.12088 0.569871 -0.0828122 -6.13587 12.8035 1.28569 -5.64481 -5.38786 
0 0 0 0 0 -0 -15.1013 94.6916 11.4489 68.6488 -30.8224 -10.1352 -2.69724 7.43032 -0.144315 -70.1915 -1.39149e-015 88.8779 -0.0310711 10.7595 1.96963 67.0498 71.41 16.8022 13.1342 3.43533 0.764692 7.48738 20.453 6.4904 29.8703 7.82586 -0.130764 -131.008 35.8367 160.919 9.52751 0.295786 -0.907742 169.852 77.0389 -140.024 27.5574 4.95586 2.47156 0.356472 -14.7674 -25.0697 1.20734 -0.998971 20.1238 -44.95 25.1811 -143.324 26.8049 -0.0536703 -0.155908 14.0931 -1.37772 -94.717 26.6817 -2.84217e-014 0.320147 3.97569e-016 1.26228e-014 -1.59028e-015 27.5927 4.71444 -2.65209 -2.22816 6.75761 47.2448 2.83739 -1.17114 -18.7564 -108.911 -22.5737 75.8217 28.839 -0.0548439 1.22491 12.7538 -6.37182 63.8767 26.5114 1.42109e-014 -0.101894 -1.10767e-012 -4.76475e-009 -0.0296889 -4.76168 -1.9167 -10.2353 -45.2058 9.3517 89.5064 2.55951 -42.0585 -8.02213 -2.64813 37.2767 -9.20602 3.16357 -42.5282 -3.95426 0.0634537 -10.4089 -0.916528 0.346054 -6.02161 12.8035 1.57374 -5.98538 8.5745 -4.94151 -1.41743 10.6446 -48.5315 -13.4965 76.6671 -2.56294 -42.0364 -7.94377 2.84977 26.6112 -7.87771 -3.0952 -42.555 -4.02241 -2.93235 -1.67312 0.613056 -0.0828122 -6.13587 12.8035 1.3602 -6.31707 -5.60375 
0 0 0 0 0 -0 -15.1679 94.6694 11.4341 68.5345 -30.8496 -10.3243 -2.69724 7.43032 -0.144315 -70.1915 -5.96354e-015 88.8779 -0.0310711 10.7595 1.96963 67.3291 71.5576 16.4034 13.1342 3.43533 0.764692 7.13046 20.5569 6.53116 29.8703 7.82586 -0.130764 -130.653 35.7859 160.63 9.52751 0.295786 -0.907742 170.004 77.0852 -139.998 27.5574 4.95586 2.47156 0.395917 -14.5613 -24.8584 1.20734 -0.998971 20.1238 -44.3857 26.1394 -143.297 26.8049 -0.0536703 -0.155908 13.8855 -1.33188 -94.6189 26.6817 -1.42109e-014 0.320147 7.95139e-016 7.65321e-015 -1.59028e-015 27.5927 4.71444 -2.65209 -2.25134 6.61711 48.2574 2.83739 -1.17114 -18.7564 -108.231 -21.4948 76.1585 28.839 -0.0548439 1.22491 12.8238 -6.27203 64.3538 26.5114 1.42109e-014 -0.101894 -1.09813e-012 -4.76475e-009 -0.0296889 -4.76168 -1.9167 -10.2353 -45.087 9.27705 89.6003 2.55951 -42.0585 -8.02213 -2.67536 37.3384 -9.42331 3.16357 -42.5282 -3.95426 -0.215752 -10.5013 -0.913648 0.346054 -6.02161 12.8035 1.59173 -6.15585 9.12792 -4.94151 -1.41743 10.6446 -48.1641 -13.5814 76.7013 -2.56294 -42.0364 -7.94377 2.69748 26.9922 -7.68624 -3.0952 -42.555 -4.02241 -3.16854 -1.57568 0.636187 -0.0828122 -6.13587 12.8035 1.40736 -6.8564 -5.66778 
0 0 0 0 0 -0 -15.1124 94.6533 11.4803 68.6823 -30.7172 -10.2022 -2.69724 7.43032 -0.144315 -70.1915 -5.96354e-015 88.8779 -0.0310711 10.7595 1.96963 67.2153 71.5469 16.3764 13.1342 3.43533 0.764692 7.15217 20.501 6.7399 29.8703 7.82586 -0.130764 -130.66 35.8342 160.977 9.52751 0.295786 -0.907742 168.831 76.9504 -138.826 27.5574 4.95586 2.47156 0.402246 -14.4708 -25.0537 1.20734 -0.998971 20.1238 -44.327 25.5717 -143.112 26.8049 -0.0536703 -0.155908 13.7935 -1.3274 -94.6372 26.6817 -4.26326e-014 0.320147 1.19271e-015 -3.67752e-015 1.59028e-015 27.5927 4.71444 -2.65209 -2.27554 6.7188 48.1003 2.83739 -1.17114 -18.7564 -108.902 -21.7115 76.0224 28.839 -0.0548439 1.22491 12.9309 -6.46277 63.8713 26.5114 2.84217e-014 -0.101894 -1.10448e-012 -4.76474e-009 -0.0296889 -4.76168 -1.9167 -10.2353 -45.2115 9.28129 89.611 2.55951 -42.0585 -8.02213 -2.67831 37.2859 -9.50574 3.16357 -42.5282 -3.95426 0.044714 -10.2513 -0.90311 0.346054 -6.02161 12.8035 1.80477 -6.48752 8.95024 -4.94151 -1.41743 10.6446 -48.339 -13.6943 76.548 -2.56294 -42.0364 -7.94377 2.69808 27.086 -8.09803 -3.0952 -42.555 -4.02241 -2.38758 -2.17208 0.577866 -0.0828122 -6.13587 12.8035 1.2505 -5.90701 -4.89959 
0 0 0 0 0 -0 -15.1153 94.6558 11.546 68.6015 -30.6311 -10.18 -2.69724 7.43032 -0.144315 -70.1915 -5.1684e-015 88.8779 -0.0310711 10.7595 1.96963 66.3746 71.577 17.1128 13.1342 3.43533 0.764692 7.1975 20.5677 6.94135 29.8703 7.82586 -0.130764 -130.264 35.8311 160.909 9.52751 0.295786 -0.907742 168.487 76.9429 -138.087 27.5574 4.95586 2.47156 0.340817 -14.7968 -25.3323 1.20734 -0.998971 20.1238 -44.3134 25.3452 -142.731 26.8049 -0.0536703 -0.155908 13.5929 -1.3057 -94.6297 26.6817 -1.42109e-014 0.320147 3.97569e-016 -8.05078e-015 -3.18055e-015 27.5927 4.71444 -2.65209 -2.31914 6.74462 48.5824 2.83739 -1.17114 -18.7564 -108.262 -21.035 76.2496 28.839 -0.0548439 1.22491 12.3159 -6.05002 64.213 26.5114 2.84217e-014 -0.101894 -1.11084e-012 -4.76474e-009 -0.0296889 -4.76168 -1.9167 -10.2353 -45.1076 9.34727 89.5583 2.55951 -42.0585 -8.02213 -2.6803 37.2864 -9.52585 3.16357 -42.5282 -3.95426 0.109426 -10.2508 -0.905585 0.346054 -6.02161 12.8035 1.75388 -6.38972 8.91819 -4.94151 -1.41743 10.6446 -48.2614 -13.6543 76.4513 -2.56294 -42.0364 -7.94377 2.73078 27.191 -7.77598 -3.0952 -42.555 -4.02241 -2.67155 -2.15774 0.609241 -0.0828122 -6.13587 12.8035 1.31733 -6.01437 -5.41877 
0 0 0 0 0 -0 -15.1344 94.6542 11.5959 68.6643 -30.4195 -10.037 -2.69724 7.43032 -0.144315 -70.1915 1.98785e-015 88.8779 -0.0310711 10.7595 1.96963 67.3345 71.4032 16.3699 13.1342 3.43533 0.764692 7.11992 20.4275 6.42938 29.8703 7.82586 -0.130764 -130.381 35.6899 160.88 9.52751 0.295786 -0.907742 169.123 76.8506 -138.624 27.5574 4.95586 2.47156 0.435476 -14.3195 -24.7833 1.20734 -0.998971 20.1238 -43.7436 25.2199 -143.16 26.8049 -0.0536703 -0.155908 13.6786 -1.28381 -94.5082 26.6817 -4.26326e-014 0.320147 -3.97569e-016 -9.24349e-015 -0 27.5927 4.71444 -2.65209 -2.36396 6.78368 49.0175 2.83739 -1.17114 -18.7564 -108.192 -20.896 76.4756 28.839 -0.0548439 1.22491 12.9188 -6.33683 64.2824 26.5114 1.42109e-014 -0.101894 -1.11402e-012 -4.76474e-009 -0.0296889 -4.76168 -1.9167 -10.2353 -45.0647 9.29424 89.2694 2.55951 -42.0585 -8.02213 -2.68683 37.3107 -9.56854 3.16357 -42.5282 -3.95426 -0.159766 -10.1809 -0.903088 0.346054 -6.02161 12.8035 1.94109 -6.70893 8.87187 -4.94151 -1.41743 10.6446 -48.3339 -13.6813 76.3271 -2.56294 -42.0364 -7.94377 2.75621 27.2526 -8.0335 -3.0952 -42.555 -4.02241 -2.92201 -2.0433 0.631196 -0.0828122 -6.13587 12.8035 1.35201 -6.56798 -5.35426 
0 0 0 0 0 -0 -15.1838 94.623 11.6286 68.8335 -30.2655 -9.85503 -2.69724 7.43032 -0.144315 -70.1915 -9.93923e-016 88.8779 -0.0310711 10.7595 1.96963 69.0418 71.4178 14.9691 13.1342 3.43533 0.764692 6.9126 20.447 5.75412 29.8703 7.82586 -0.130764 -130.47 35.4826 160.483 9.52751 0.295786 -0.907742 169.964 76.7937 -139.425 27.5574 4.95586 2.47156 0.483815 -14.1257 -24.2358 1.20734 -0.998971 20.1238 -43.3175 25.099 -143.66 26.8049 -0.0536703 -0.155908 13.4687 -1.22064 -94.3342 26.6817 -2.84217e-014 0.320147 -1.19271e-015 -1.19271e-015 -1.59028e-015 27.5927 4.71444 -2.65209 -2.45343 6.97552 49.2944 2.83739 -1.17114 -18.7564 -107.652 -21.0518 76.37 28.839 -0.0548439 1.22491 12.7148 -6.02027 65.0459 26.5114 2.84217e-014 -0.101894 -1.1013e-012 -4.76474e-009 -0.0296889 -4.76168 -1.9167 -10.2353 -45.0866 9.27883 89.0636 2.55951 -42.0585 -8.02213 -2.67532 37.3222 -9.43904 3.16357 -42.5282 -3.95426 0.108489 -10.154 -0.899865 0.346054 -6.02161 12.8035 1.86787 -6.52296 8.63839 -4.94151 -1.41743 10.6446 -48.39 -13.7003 76.1441 -2.56294 -42.0364 -7.94377 2.75089 27.4816 -8.19046 -3.0952 -42.555 -4.02241 -2.70508 -2.20338 0.615726 -0.0828122 -6.13587 12.8035 1.32536 -6.38221 -5.2271 
